<svg xmlns="http://www.w3.org/2000/svg" viewBox="0 0 861.99 191.2" height="26px">
                                <path d="M26,188.4a25.48,25.48,0,0,1-26-26V28.2A26,26,0,0,1,7.45,9.66,26,26,0,0,1,26,2.2H45.6A26,26,0,0,1,64.12,9.63,26,26,0,0,1,71.6,28.2V162.4a25.48,25.48,0,0,1-26,26Z" style="fill:#fff"></path>
                                <path d="M50,166.8a5.94,5.94,0,0,1-4.4,1.6H26a5.93,5.93,0,0,1-4.4-1.6,5.93,5.93,0,0,1-1.6-4.4V28.2a5.94,5.94,0,0,1,1.6-4.4A6,6,0,0,1,26,22.2H45.6a5.54,5.54,0,0,1,6,6V162.4A6,6,0,0,1,50,166.8Z" style="fill:#fff"></path>
                                <path d="M364.6,188.4a25.48,25.48,0,0,1-26-26V28.2A26,26,0,0,1,346,9.66,26,26,0,0,1,364.6,2.2h98.8a26,26,0,0,1,18.52,7.44A26,26,0,0,1,489.4,28.2V43.6a26,26,0,0,1-7.46,18.55,25.15,25.15,0,0,1-10.19,6.18q.49.44,1,.91A26,26,0,0,1,480.2,87.8v15.4a25.48,25.48,0,0,1-26,26H410.4v33.2a25.48,25.48,0,0,1-26,26Z" style="fill:#fff"></path>
                                <path d="M390.4,81.8h63.8a5.54,5.54,0,0,1,6,6v15.4a5.53,5.53,0,0,1-6,6H390.4v53.2a5.54,5.54,0,0,1-6,6H364.6a5.54,5.54,0,0,1-6-6V28.2a5.54,5.54,0,0,1,6-6h98.8a5.54,5.54,0,0,1,6,6V43.6a5.54,5.54,0,0,1-6,6h-73Z" style="fill:#fff"></path>
                                <path d="M486.2,188.4a25.48,25.48,0,0,1-26-26V28.2a26,26,0,0,1,7.45-18.54A26,26,0,0,1,486.2,2.2H585a26,26,0,0,1,18.52,7.44A26,26,0,0,1,611,28.2V43.6a26,26,0,0,1-7.46,18.55A25.18,25.18,0,0,1,593,68.43q.67.58,1.3,1.21a26,26,0,0,1,7.48,18.57v15.6a26,26,0,0,1-7.46,18.54l-.2.2a25.14,25.14,0,0,1,9.39,5.9A26,26,0,0,1,611,147v15.4a25.48,25.48,0,0,1-26,26Z" style="fill:#fff"></path>
                                <path d="M511.8,82.2h64a5.54,5.54,0,0,1,6,6v15.6a5.54,5.54,0,0,1-6,6h-64V141H585a5.54,5.54,0,0,1,6,6v15.4a5.54,5.54,0,0,1-6,6H486.2a5.54,5.54,0,0,1-6-6V28.2a5.54,5.54,0,0,1,6-6H585a5.54,5.54,0,0,1,6,6V43.6a5.54,5.54,0,0,1-6,6H511.8Z" style="fill:#fff"></path>
                                <path d="M663.79,191.2c-28.5,0-53.24-7.84-73.52-23.29-6.78-5.2-10.48-12.47-10.48-20.51a26.62,26.62,0,0,1,5-15.28l9.61-13.83a25.68,25.68,0,0,1,8.26-8.25,78.59,78.59,0,0,1-6.93-6c-7.32-6.93-16-19.43-16-39.84,0-27.13,13.66-42,25.11-49.78C619.09,4.85,636.88,0,657.79,0A114.24,114.24,0,0,1,692,4.82,116.08,116.08,0,0,1,721.75,19.4l.24.16.24.17a25.4,25.4,0,0,1,5.54,37l-10,13.58a27.78,27.78,0,0,1-3.39,4.09,65.47,65.47,0,0,1,14.77,12.78C737.65,96.93,742,110,742,125.8c0,20.74-8.09,37.87-23.38,49.51C704.76,185.85,686.32,191.2,663.79,191.2Z" style="fill:#fff"></path>
                                <path d="M599.79,147.4a6.69,6.69,0,0,1,1.4-3.8l10-14.4a4.89,4.89,0,0,1,4.4-2.8,6.72,6.72,0,0,1,3.8,1.4,92.58,92.58,0,0,0,21.7,10.7q12.3,4.3,22.3,4.3,12.2,0,19.6-4.7t7.4-11.5q0-9.8-15.2-14l-17.4-3.6q-17.2-2.8-28.3-6.8a54.81,54.81,0,0,1-19.9-12.6q-9.8-9.2-9.8-25.4,0-22.2,16.3-33.2t41.7-11A93.94,93.94,0,0,1,686,23.9,95.67,95.67,0,0,1,710.59,36q2.8,2,2.8,4.6a5.59,5.59,0,0,1-1.4,3.8l-10.6,14.4q-1.8,2.8-4.4,2.8a6.92,6.92,0,0,1-4-1.4,78.78,78.78,0,0,0-18.1-8.6,59.38,59.38,0,0,0-18.3-3q-10.4,0-17.8,3.6T631.39,63a9.1,9.1,0,0,0,3.8,7.4,24.52,24.52,0,0,0,9.4,4.4q4,1.2,15.8,3.8l7.2,1.4q18.6,3.6,28.8,7.6A44.33,44.33,0,0,1,714,100.2q8,9.2,8,25.6,0,21.8-15.5,33.6t-42.7,11.8q-36.2,0-61.4-19.2A5.74,5.74,0,0,1,599.79,147.4Z" style="fill:#fff"></path>
                                <path d="M773.79,188.4a25.48,25.48,0,0,1-26-26V69.6h-16.6a25.48,25.48,0,0,1-26-26V28.2a25.48,25.48,0,0,1,26-26H836a26,26,0,0,1,18.52,7.44A26,26,0,0,1,862,28.2V43.6a25.48,25.48,0,0,1-26,26h-16.4v92.8a25.48,25.48,0,0,1-26,26Z" style="fill:#fff"></path>
                                <path d="M840.39,48a5.94,5.94,0,0,1-4.4,1.6h-36.4V162.4a5.54,5.54,0,0,1-6,6h-19.8a5.54,5.54,0,0,1-6-6V49.6h-36.6a5.54,5.54,0,0,1-6-6V28.2a5.54,5.54,0,0,1,6-6H836a5.54,5.54,0,0,1,6,6V43.6A6,6,0,0,1,840.39,48Z" style="fill:#fff"></path>
                                <path d="M277,187c-4.18,0-14.63-1.31-21.43-13.4l-.27-.48L188.87,38.28A26.51,26.51,0,0,1,186,26.4c0-11.93,8.66-24,25.2-24H233c11.22,0,20.65,5.92,25.29,15.86L277,57.21l18.87-39C300.55,8.32,310,2.4,321.2,2.4h22c16.54,0,25.2,12.07,25.2,24a26.56,26.56,0,0,1-2.9,11.92L299.06,172.38C294.87,181.42,286.47,187,277,187Z" style="fill:#fff"></path>
                                <path d="M343.2,22.4h-22q-5.2,0-7.2,4.4l-37,76.4L240.2,26.8q-2-4.4-7.2-4.4H211.2q-5.2,0-5.2,4a6.72,6.72,0,0,0,.8,3L273,163.8q1.8,3.2,4,3.2,2.6,0,4-3.2L347.6,29.4a6.76,6.76,0,0,0,.8-3Q348.4,22.4,343.2,22.4Z" style="fill:#fff"></path>
                                <path d="M192,188.6A24.34,24.34,0,0,1,175.32,182L114.6,129.13V162.4a25.48,25.48,0,0,1-26,26H69.2a25.48,25.48,0,0,1-26-26V25.6A23.67,23.67,0,0,1,49.06,9.8,22.59,22.59,0,0,1,64.15,2.3c.7-.07,1.37-.1,2.05-.1A26.19,26.19,0,0,1,83.91,9.28L144,62.41v-34a26,26,0,0,1,7.45-18.54A26,26,0,0,1,170,2.4h19.6a25.48,25.48,0,0,1,26,26V163.2a26.9,26.9,0,0,1-4.35,15A22.86,22.86,0,0,1,192,188.6Z" style="fill:#fff"></path>
                                <path d="M194,24a6,6,0,0,0-4.4-1.6H170a5.54,5.54,0,0,0-6,6v78.4L70.6,24.2a6.62,6.62,0,0,0-4.4-2l-.25,0A2.71,2.71,0,0,0,64,23.1a3.63,3.63,0,0,0-.8,2.5V162.4a5.54,5.54,0,0,0,6,6H88.6a5.54,5.54,0,0,0,6-6V85.2l94.2,82a4.4,4.4,0,0,0,3.2,1.4,3,3,0,0,0,2.6-1.5,6.91,6.91,0,0,0,1-3.9V28.4A6,6,0,0,0,194,24Z" style="fill:#fff"></path>
                                <path d="M50,166.8a5.94,5.94,0,0,1-4.4,1.6H26a5.93,5.93,0,0,1-4.4-1.6,5.93,5.93,0,0,1-1.6-4.4V28.2a5.94,5.94,0,0,1,1.6-4.4A6,6,0,0,1,26,22.2H45.6a5.54,5.54,0,0,1,6,6V162.4A6,6,0,0,1,50,166.8Z" style="fill:#35356b"></path>
                                <path d="M390.4,81.8h63.8a5.54,5.54,0,0,1,6,6v15.4a5.53,5.53,0,0,1-6,6H390.4v53.2a5.54,5.54,0,0,1-6,6H364.6a5.54,5.54,0,0,1-6-6V28.2a5.54,5.54,0,0,1,6-6h98.8a5.54,5.54,0,0,1,6,6V43.6a5.54,5.54,0,0,1-6,6h-73Z" style="fill:#35356b"></path>
                                <path d="M511.8,82.2h64a5.54,5.54,0,0,1,6,6v15.6a5.54,5.54,0,0,1-6,6h-64V141H585a5.54,5.54,0,0,1,6,6v15.4a5.54,5.54,0,0,1-6,6H486.2a5.54,5.54,0,0,1-6-6V28.2a5.54,5.54,0,0,1,6-6H585a5.54,5.54,0,0,1,6,6V43.6a5.54,5.54,0,0,1-6,6H511.8Z" style="fill:#35356b"></path>
                                <path d="M599.79,147.4a6.69,6.69,0,0,1,1.4-3.8l10-14.4a4.89,4.89,0,0,1,4.4-2.8,6.72,6.72,0,0,1,3.8,1.4,92.58,92.58,0,0,0,21.7,10.7q12.3,4.3,22.3,4.3,12.2,0,19.6-4.7t7.4-11.5q0-9.8-15.2-14l-17.4-3.6q-17.2-2.8-28.3-6.8a54.81,54.81,0,0,1-19.9-12.6q-9.8-9.2-9.8-25.4,0-22.2,16.3-33.2t41.7-11A93.94,93.94,0,0,1,686,23.9,95.67,95.67,0,0,1,710.59,36q2.8,2,2.8,4.6a5.59,5.59,0,0,1-1.4,3.8l-10.6,14.4q-1.8,2.8-4.4,2.8a6.92,6.92,0,0,1-4-1.4,78.78,78.78,0,0,0-18.1-8.6,59.38,59.38,0,0,0-18.3-3q-10.4,0-17.8,3.6T631.39,63a9.1,9.1,0,0,0,3.8,7.4,24.52,24.52,0,0,0,9.4,4.4q4,1.2,15.8,3.8l7.2,1.4q18.6,3.6,28.8,7.6A44.33,44.33,0,0,1,714,100.2q8,9.2,8,25.6,0,21.8-15.5,33.6t-42.7,11.8q-36.2,0-61.4-19.2A5.74,5.74,0,0,1,599.79,147.4Z" style="fill:#35356b"></path>
                                <path d="M840.39,48a5.94,5.94,0,0,1-4.4,1.6h-36.4V162.4a5.54,5.54,0,0,1-6,6h-19.8a5.54,5.54,0,0,1-6-6V49.6h-36.6a5.54,5.54,0,0,1-6-6V28.2a5.54,5.54,0,0,1,6-6H836a5.54,5.54,0,0,1,6,6V43.6A6,6,0,0,1,840.39,48Z" style="fill:#35356b"></path>
                                <path d="M257.09,15.4" style="fill:#35356b"></path>
                                <path d="M343.2,22.4h-22q-5.2,0-7.2,4.4l-37,76.4L240.2,26.8q-2-4.4-7.2-4.4H211.2q-5.2,0-5.2,4a6.72,6.72,0,0,0,.8,3L273,163.8q1.8,3.2,4,3.2,2.6,0,4-3.2L347.6,29.4a6.76,6.76,0,0,0,.8-3Q348.4,22.4,343.2,22.4Z" style="fill:#35356b"></path>
                                <path d="M194,24a6,6,0,0,0-4.4-1.6H170a5.54,5.54,0,0,0-6,6v78.4L70.6,24.2a6.62,6.62,0,0,0-4.4-2l-.25,0A2.71,2.71,0,0,0,64,23.1a3.63,3.63,0,0,0-.8,2.5V162.4a5.54,5.54,0,0,0,6,6H88.6a5.54,5.54,0,0,0,6-6V85.2l94.2,82a4.4,4.4,0,0,0,3.2,1.4,3,3,0,0,0,2.6-1.5,6.91,6.91,0,0,0,1-3.9V28.4A6,6,0,0,0,194,24Z" style="fill:#35356b"></path></svg>