<svg width="418" height="418" viewBox="0 0 418 418" fill="none" xmlns="http://www.w3.org/2000/svg">
<path opacity="0.5" d="M104.03 190.608C92.1691 196.826 72.9934 196.826 61.1849 190.608C49.3241 184.39 49.3241 174.254 61.1849 168.036C73.0456 161.818 92.2214 161.818 104.03 168.036C115.838 174.306 115.838 184.39 104.03 190.608Z" fill="#173D7A"/>
<path d="M117.04 165.685V156.855H115.211C113.592 154.294 110.822 151.839 106.956 149.801C93.4753 142.695 71.6348 142.695 58.2066 149.801C54.2878 151.839 51.5708 154.294 49.9511 156.855H48.1223V165.633C48.1223 170.283 51.4663 174.985 58.2066 178.538C71.6871 185.644 93.5276 185.644 106.956 178.538C113.696 174.985 117.04 170.335 117.04 165.685Z" fill="#FF2C9C"/>
<path d="M82.6073 175.037C101.653 175.037 117.092 166.897 117.092 156.855C117.092 146.812 101.653 138.672 82.6073 138.672C63.5618 138.672 48.1223 146.812 48.1223 156.855C48.1223 166.897 63.5618 175.037 82.6073 175.037Z" fill="#FF2C9C"/>
<path d="M106.956 169.708C93.4752 176.814 71.6347 176.814 58.2065 169.708C51.7275 166.312 48.4357 161.923 48.1745 157.429C47.861 162.288 51.205 167.148 58.2065 170.857C71.687 177.963 93.5275 177.963 106.956 170.857C113.957 167.148 117.301 162.288 116.988 157.429C116.726 161.87 113.435 166.312 106.956 169.708Z" fill="white"/>
<path d="M65.9395 162.863C65.3648 162.55 65.0513 162.132 65.0513 161.714L65.1035 149.905C65.1035 149.017 66.5143 148.285 68.1863 148.285C69.9105 148.285 71.269 149.017 71.269 149.905L71.2168 159.728L102.41 156.228C104.082 156.019 105.754 156.593 106.068 157.481C106.433 158.37 105.336 159.258 103.664 159.415L68.7088 163.334C67.7683 163.438 66.8278 163.334 66.0963 163.02C66.0963 162.968 66.044 162.916 65.9395 162.863Z" fill="white"/>
<path opacity="0.5" d="M401.959 239.723L285.755 172.425C279.433 168.767 268.408 169.185 261.093 173.418L17.2425 313.761C9.92753 317.941 9.14378 324.316 15.466 327.973L131.67 395.271C137.992 398.929 149.017 398.511 156.332 394.278L400.183 253.935C407.498 249.755 408.282 243.38 401.959 239.723Z" fill="#173D7A"/>
<path d="M128.274 370.4L7.315 300.333C3.344 298.034 1.51525 294.951 1.61975 291.712H1.5675L1.61975 274.156L8.36 282.045C8.778 281.732 9.24825 281.471 9.7185 281.21L257.122 138.828C266.945 133.185 281.784 132.558 290.301 137.522L409.535 206.596C411.939 203.932 417.007 198.393 417.007 198.393L416.955 215.583C417.112 219.45 414.395 223.578 408.856 226.765L161.4 369.042C151.577 374.685 136.738 375.312 128.274 370.4Z" fill="#5793CE"/>
<path d="M62.8568 327.399L69.8061 331.422C70.7466 331.944 71.4781 331.37 71.4781 330.168C71.4781 328.914 70.7466 327.503 69.8061 326.981L62.8568 322.957C61.9163 322.435 61.1848 323.01 61.1848 324.211C61.1848 325.465 61.9163 326.876 62.8568 327.399Z" fill="#173D7A"/>
<path d="M257.122 138.828C266.945 133.185 281.784 132.558 290.301 137.522L409.536 206.596C411.939 203.932 417.007 198.393 417.007 198.393L416.955 215.583C417.112 219.45 414.395 223.578 408.856 226.765L161.4 369.042C156.28 371.968 149.801 373.535 143.531 373.692L143.792 204.036L257.122 138.828Z" fill="#396CAA"/>
<path d="M411.311 189.877L290.353 119.862C281.836 114.95 266.997 115.525 257.174 121.168L9.77013 263.549C-0.0528748 269.192 -1.15013 277.761 7.36663 282.673L128.325 352.688C136.842 357.599 151.681 357.024 161.504 351.381L408.908 209C418.731 203.357 419.776 194.788 411.311 189.877Z" fill="#D4ECFF"/>
<path d="M128.221 354.621L7.26272 284.606C2.87372 282.045 1.04497 278.545 1.67197 274.992C1.88097 277.918 3.76197 280.635 7.36722 282.725L128.326 352.74C136.843 357.651 151.682 357.076 161.505 351.433L408.908 209C413.663 206.283 416.328 202.834 416.903 199.49C417.216 203.409 414.447 207.641 408.804 210.881L161.4 353.262C151.577 358.957 136.738 359.532 128.221 354.621Z" fill="white"/>
<path d="M401.959 192.646L285.755 125.348C279.433 121.69 268.408 122.108 261.093 126.341L17.2425 266.684C9.92753 270.864 9.14378 277.239 15.466 280.896L131.67 348.194C137.992 351.852 149.017 351.434 156.332 347.201L400.235 206.858C407.498 202.678 408.281 196.303 401.959 192.646Z" fill="#173D7A"/>
<path d="M160.93 313.291L78.8975 265.9L84.1225 262.922L166.155 310.26L160.93 313.291Z" fill="#D4ECFF"/>
<path d="M103.873 299.445L62.3342 275.514L67.5592 272.484L109.098 296.467L103.873 299.445Z" fill="#D4ECFF"/>
<path d="M123.989 311.097L110.561 303.311L115.786 300.281L129.267 308.066L123.989 311.097Z" fill="#FF2C9C"/>
<path d="M144.367 322.853L130.886 315.068L136.111 312.037L149.592 319.822L144.367 322.853Z" fill="white"/>
<path d="M104.343 290.144L70.6418 270.707L75.8668 267.677L109.568 287.166L104.343 290.144Z" fill="white"/>
<path d="M145.464 313.918L111.763 294.481L116.988 291.451L150.689 310.888L145.464 313.918Z" fill="#D4ECFF"/>
<path d="M120.489 272.327C118.817 273.32 116.047 273.32 114.375 272.327C112.703 271.334 112.703 269.767 114.375 268.826C116.047 267.834 118.817 267.834 120.489 268.826C122.213 269.767 122.213 271.334 120.489 272.327Z" fill="#FF2C9C"/>
<path d="M129.632 277.604C127.96 278.597 125.191 278.597 123.519 277.604C121.847 276.612 121.847 275.044 123.519 274.104C125.191 273.111 127.96 273.111 129.632 274.104C131.304 275.044 131.304 276.612 129.632 277.604Z" fill="white"/>
<path d="M138.776 282.882C137.104 283.874 134.335 283.874 132.663 282.882C130.991 281.889 130.991 280.321 132.663 279.381C134.335 278.388 137.104 278.388 138.776 279.381C140.448 280.321 140.448 281.889 138.776 282.882Z" fill="#D4ECFF"/>
<path d="M147.867 288.107C146.195 289.099 143.426 289.099 141.754 288.107C140.082 287.114 140.082 285.546 141.754 284.606C143.426 283.613 146.195 283.613 147.867 284.606C149.592 285.599 149.592 287.166 147.867 288.107Z" fill="#FF2C9C"/>
<path d="M157.011 293.384C155.339 294.377 152.57 294.377 150.898 293.384C149.226 292.391 149.226 290.824 150.898 289.883C152.57 288.89 155.339 288.89 157.011 289.883C158.683 290.824 158.683 292.443 157.011 293.384Z" fill="white"/>
<path d="M340.409 193.168L326.615 185.174L331.997 182.091L345.79 190.085L340.409 193.168Z" fill="#FF2C9C"/>
<path d="M359.637 204.245L345.843 196.303L351.225 193.168L365.018 201.162L359.637 204.245Z" fill="white"/>
<path d="M278.754 157.22L264.96 149.226L270.289 146.143L284.135 154.137L278.754 157.22Z" fill="white"/>
<path d="M337.326 201.215L318.098 190.085L323.48 187.003L342.708 198.08L337.326 201.215Z" fill="white"/>
<path d="M351.172 209.157L342.708 204.297L348.09 201.215L356.502 206.074L351.172 209.157Z" fill="#D4ECFF"/>
<path opacity="0.5" d="M380.432 157.377L357.077 143.896L380.432 130.416L403.788 143.896L380.432 157.377Z" fill="#173D7A"/>
<path d="M403.788 126.759L380.432 140.239V113.278L403.788 99.7975V126.759Z" fill="#D3008D"/>
<path d="M380.432 113.278L357.077 99.7975L380.432 86.2648L403.788 99.7975L380.432 113.278Z" fill="#FF2C9C"/>
<path d="M380.432 140.239L357.077 126.759V99.7975L380.432 113.278V140.239Z" fill="#FF2C9C"/>
<path d="M372.02 125.661L365.489 121.899V114.375L372.02 118.137V125.661Z" fill="white"/>
<path opacity="0.5" d="M27.3268 411.73L2.97827 397.675L27.3268 383.62L51.623 397.675L27.3268 411.73Z" fill="#173D7A"/>
<path d="M51.6229 379.857L27.3267 393.913V365.802L51.6229 351.747V379.857Z" fill="#173D7A"/>
<path d="M27.3268 365.802L2.97827 351.747L27.3268 337.692L51.623 351.747L27.3268 365.802Z" fill="#D4ECFF"/>
<path d="M27.3268 393.913L2.97827 379.857V351.747L27.3268 365.802V393.913Z" fill="#5793CE"/>
<path d="M18.5487 378.708L11.7562 374.789V366.952L18.5487 370.87V378.708Z" fill="white"/>
<path opacity="0.5" d="M306.342 376.566L330.481 362.615L354.673 376.566L330.481 390.517L306.342 376.566Z" fill="#173D7A"/>
<path opacity="0.5" d="M262.87 402.743L287.062 388.792L311.253 402.743L287.062 416.694L262.87 402.743Z" fill="#173D7A"/>
<path opacity="0.5" d="M349.762 351.747L373.953 337.796L398.093 351.747L373.953 365.698L349.762 351.747Z" fill="#173D7A"/>
<path d="M373.953 351.747V306.76L346.365 290.876V335.811L373.953 351.747Z" fill="#FDD762"/>
<path d="M373.953 306.76L401.541 290.876V335.811L373.953 351.747V306.76Z" fill="#E8A200"/>
<path d="M346.365 290.876L373.953 274.94L401.541 290.876L373.953 306.76L346.365 290.876Z" fill="#FDD762"/>
<path d="M373.953 309.006L401.541 293.07V294.585L373.953 310.469L346.365 294.585V293.07L373.953 309.006Z" fill="#FDD762"/>
<path d="M330.481 377.245V313.186L302.893 297.25V361.309L330.481 377.245Z" fill="#FF2C9C"/>
<path d="M330.481 313.186L358.069 297.25V361.309L330.481 377.245V313.186Z" fill="#D3008D"/>
<path d="M302.893 297.25L330.481 281.314L358.069 297.25L330.481 313.186L302.893 297.25Z" fill="#FF2C9C"/>
<path d="M330.481 315.433L358.069 299.497V300.96L330.481 316.896L302.893 300.96V299.497L330.481 315.433Z" fill="#FF2C9C"/>
<path d="M287.062 402.743V374.737L259.474 358.801V386.807L287.062 402.743Z" fill="#5793CE"/>
<path d="M287.062 374.737L314.65 358.801V386.807L287.062 402.743V374.737Z" fill="#396CAA"/>
<path d="M259.474 358.801L287.062 342.865L314.65 358.801L287.062 374.737L259.474 358.801Z" fill="#D4ECFF"/>
<path d="M287.062 376.932L314.65 360.995V362.511L287.062 378.447L259.474 362.511V360.995L287.062 376.932Z" fill="#5793CE"/>
<path d="M163.125 15.5182L154.921 10.7635C148.704 7.15824 142.799 6.53124 138.41 8.77799L130.207 13.376L133.499 13.5327C132.715 14.839 132.14 16.2497 131.722 17.8695C136.947 18.0785 142.172 19.1757 144.419 22.7287C144.942 22.2585 145.516 21.945 146.091 21.6837L155.183 32.1338L163.125 27.6403V15.5182Z" fill="#FDD762"/>
<path d="M164.796 76.6507C157.586 72.523 151.002 63.8495 148.024 54.549L142.642 38.038C140.657 31.977 141.023 26.752 143.531 23.6692C143.792 23.3557 144.053 23.0945 144.314 22.8855C142.068 19.3325 136.843 18.2875 131.618 18.0262C130.155 23.3557 130.625 30.2527 133.028 37.62L137.417 51.1005L135.902 53.1382C135.902 53.1382 146.091 78.8453 146.613 79.211C146.979 79.42 151.682 80.3605 154.712 80.9875C157.899 84.1748 161.296 86.8917 164.796 88.9295L190.138 103.56V112.651L198.08 108.158V95.931L164.796 76.6507Z" fill="#E8A200"/>
<path d="M156.855 81.1442C149.644 77.0165 143.061 68.343 140.082 59.0425L134.701 42.5315C132.715 36.4705 133.081 31.2455 135.589 28.1627C138.097 25.08 142.277 24.8187 146.927 27.5357L155.13 32.2905V20.0117L146.927 15.257C138.672 10.5022 131.095 10.9202 126.654 16.3542C122.213 21.7882 121.638 31.4022 125.087 42.009L130.468 58.52C135.223 73.0977 145.569 86.735 156.855 93.2662L190.19 112.494V100.268L156.855 81.1442Z" fill="#F9BF30"/>
<path d="M211.665 263.915C239.165 263.915 261.459 251.049 261.459 235.177C261.459 219.306 239.165 206.44 211.665 206.44C184.164 206.44 161.871 219.306 161.871 235.177C161.871 251.049 184.164 263.915 211.665 263.915Z" fill="#092E63"/>
<path d="M265.273 188.831L252.942 188.884C252.054 188.257 251.114 187.682 250.121 187.107C229.848 175.403 197.035 175.403 176.814 187.107C175.56 187.839 174.358 188.623 173.261 189.406L161.662 189.459V208.269C161.662 215.949 166.73 223.578 176.866 229.43C197.139 241.134 229.952 241.134 250.173 229.43C260.31 223.578 265.378 215.897 265.378 208.269V188.831H265.273Z" fill="#396CAA"/>
<path d="M211.665 178.382C198.968 178.643 186.428 181.517 176.71 187.107C175.456 187.839 174.254 188.623 173.157 189.406L161.557 189.459V208.269C161.557 215.949 166.625 223.578 176.762 229.43C186.428 235.02 199.02 237.946 211.717 238.155V178.382H211.665Z" fill="#5793CE"/>
<path d="M168.663 189.406L161.557 189.459V208.269C161.557 213.494 163.908 218.771 168.663 223.421V189.406Z" fill="#D4ECFF"/>
<path d="M213.389 218.771C242.015 218.771 265.221 205.367 265.221 188.832C265.221 172.297 242.015 158.892 213.389 158.892C184.763 158.892 161.557 172.297 161.557 188.832C161.557 205.367 184.763 218.771 213.389 218.771Z" fill="#D4ECFF"/>
<path d="M250.068 209.993C229.795 221.697 196.982 221.697 176.762 209.993C167.148 204.454 162.079 197.244 161.609 189.981C161.087 198.028 166.103 206.178 176.762 212.292C197.035 223.996 229.848 223.996 250.068 212.292C260.727 206.126 265.743 198.028 265.221 189.981C264.698 197.244 259.682 204.454 250.068 209.993Z" fill="white"/>
<path d="M242.074 180.68C241.395 180.262 240.716 179.792 240.037 179.374C225.354 170.91 201.528 170.91 186.846 179.374C185.906 179.897 185.07 180.471 184.234 181.046H180.994V198.55C182.562 200.118 184.547 201.58 186.846 202.887C201.528 211.351 225.354 211.351 240.037 202.887C247.404 198.654 251.061 193.064 251.061 187.525V180.576L242.074 180.68Z" fill="#396CAA"/>
<path d="M186.794 179.374C185.853 179.897 185.017 180.472 184.181 181.046H180.942V198.55C182.509 200.118 184.495 201.581 186.794 202.887C193.795 206.962 202.939 209.052 212.135 209.209V173C202.939 173.209 193.848 175.299 186.794 179.374Z" fill="#5793CE"/>
<path d="M180.942 181.046L175.769 181.099V187.578C175.769 191.392 177.493 195.206 180.942 198.55V181.046Z" fill="#5793CE"/>
<path d="M213.389 202.312C234.166 202.312 251.009 192.58 251.009 180.576C251.009 168.572 234.166 158.84 213.389 158.84C192.612 158.84 175.769 168.572 175.769 180.576C175.769 192.58 192.612 202.312 213.389 202.312Z" fill="#5793CE"/>
<path d="M193.273 162.863C204.402 169.29 222.428 169.29 233.558 162.863C244.687 156.437 244.687 146.039 233.558 139.612C222.428 133.185 204.402 133.185 193.273 139.612C182.144 146.039 182.144 156.437 193.273 162.863Z" fill="white"/>
<path d="M180.106 167.67C186.115 163.229 184.965 158.84 184.965 158.84L189.511 164.326C203.305 157.638 223.473 157.69 237.267 164.326L241.813 158.84C241.813 158.84 240.664 163.177 246.672 167.67C252.681 172.111 250.696 180.889 250.696 180.889C250.696 186.428 247.038 191.914 239.775 196.146C225.198 204.559 201.581 204.559 187.003 196.146C179.74 191.914 176.083 186.428 176.083 180.889C176.083 180.889 174.149 172.164 180.106 167.67Z" fill="#F9BF30"/>
<path d="M234.237 169.029C234.237 169.029 223.473 162.654 223.473 161.296C223.473 161.087 223.682 160.721 224.048 160.303C228.803 161.139 233.296 162.445 237.267 164.379L241.813 158.892C241.813 158.892 240.664 163.229 246.672 167.723C252.681 172.164 250.696 180.942 250.696 180.942C250.696 183.972 249.598 186.951 247.404 189.772C247.508 189.093 248.658 180.054 241.865 177.128C234.864 173.993 234.237 169.029 234.237 169.029Z" fill="#E8A200"/>
<path d="M193.273 169.447C204.402 175.873 222.428 175.873 233.558 169.447C244.687 163.02 244.687 152.622 233.558 146.195C222.428 139.769 204.402 139.769 193.273 146.195C182.144 152.57 182.144 163.02 193.273 169.447Z" fill="#E8A200"/>
<path d="M287.95 46.7637C287.218 88.3025 265.796 93.3185 254.353 108.889C243.642 123.414 244.896 144.367 245.105 147.136C245.105 147.24 245.105 147.345 245.105 147.449C245.105 152.152 242.022 156.802 235.804 160.355C223.421 167.513 203.409 167.513 191.026 160.355C185.226 157.011 182.196 152.674 181.83 148.285H181.778V147.397C181.778 147.293 181.778 147.188 181.778 147.084C181.987 144.367 183.189 123.362 172.53 108.837C161.087 93.2662 139.664 88.2502 138.933 46.7115H287.95V46.7637Z" fill="#F9BF30"/>
<path d="M233.505 92.0122C233.505 92.0122 231.781 96.976 226.347 111.188C220.913 125.4 223.473 161.296 223.473 161.296L232.669 161.923C233.767 161.452 234.812 160.93 235.804 160.355C241.97 156.802 245.105 152.1 245.105 147.45C245.105 147.345 245.105 147.24 245.105 147.136C244.896 144.419 243.694 123.414 254.353 108.889C265.796 93.3185 287.218 88.3025 287.95 46.7637H279.799L233.505 92.0122Z" fill="#E8A200"/>
<path d="M213.389 89.8177C254.539 89.8177 287.898 70.5418 287.898 46.7637C287.898 22.9857 254.539 3.70975 213.389 3.70975C172.239 3.70975 138.881 22.9857 138.881 46.7637C138.881 70.5418 172.239 89.8177 213.389 89.8177Z" fill="#FDD762"/>
<path d="M160.721 77.1732C189.824 93.9977 237.006 93.9977 266.109 77.1732C279.851 69.2312 287.062 58.9902 287.845 48.6447C288.734 60.2965 281.471 72.105 266.109 80.9875C237.006 97.812 189.824 97.812 160.721 80.9875C145.36 72.105 138.097 60.2965 138.985 48.697C139.717 59.0425 146.979 69.2835 160.721 77.1732Z" fill="white"/>
<path d="M213.389 82.8685C247.931 82.8685 275.932 66.7039 275.932 46.7637C275.932 26.8236 247.931 10.659 213.389 10.659C178.848 10.659 150.846 26.8236 150.846 46.7637C150.846 66.7039 178.848 82.8685 213.389 82.8685Z" fill="#F2B42A"/>
<path d="M169.186 72.314C179.427 78.2182 192.332 81.6145 205.656 82.555C207.746 79.9425 208.53 77.121 207.537 74.0905C201.058 54.6013 203.566 14.3165 203.566 14.3165L191.81 12.9057C183.554 14.6822 175.821 17.3992 169.186 21.2135C144.733 35.321 144.733 58.2065 169.186 72.314Z" fill="#E8A200"/>
<path d="M257.645 24.453C233.192 10.3455 193.586 10.3455 169.186 24.453C157.691 31.0887 151.577 39.71 150.95 48.3835C150.219 38.6127 156.28 28.6852 169.186 21.2657C193.639 7.15825 233.244 7.15825 257.645 21.2657C270.551 28.7375 276.664 38.6127 275.88 48.3835C275.201 39.6577 269.14 31.0887 257.645 24.453Z" fill="white"/>
<path d="M244.008 78.2705C225.041 84.436 201.737 84.436 182.771 78.2705C183.398 77.8525 184.077 77.3822 184.809 77.0165C200.588 67.925 226.19 67.925 241.97 77.0165C242.701 77.3822 243.381 77.8003 244.008 78.2705Z" fill="#E8A200"/>
<path d="M181.778 147.136C181.778 146.822 181.83 146.195 181.882 145.412C182.353 149.696 185.383 153.876 191.026 157.168C203.409 164.326 223.421 164.326 235.804 157.168C241.343 153.981 244.373 149.905 244.948 145.725C245 146.404 245 146.875 245.053 147.188C245.053 147.293 245.053 147.397 245.053 147.502C245.053 152.204 241.97 156.854 235.752 160.407C223.369 167.566 203.357 167.566 190.974 160.407C185.174 157.063 182.144 152.727 181.778 148.338H181.726V147.449C181.726 147.345 181.778 147.24 181.778 147.136Z" fill="white"/>
<path d="M297.146 108.941C292.705 98.3867 285.128 89.1907 276.873 84.436L268.67 79.6812L260.728 84.1747L261.146 86.944L272.17 98.7002L287.845 121.063L290.458 119.652C290.51 121.951 290.092 124.041 289.204 125.766L283.822 136.111C282.986 137.731 281.837 138.985 280.478 139.873C282.255 144.21 282.882 148.756 280.06 152.727H278.231L278.806 154.242C278.597 154.451 278.388 154.66 278.127 154.921C278.44 154.973 278.754 154.973 279.067 154.973L279.956 157.377L287.95 152.883C290.144 151.525 292.025 149.487 293.384 146.875L298.766 136.529C302.214 129.789 301.587 119.496 297.146 108.941Z" fill="#E8A200"/>
<path d="M280.478 139.873C277.029 142.12 272.17 141.859 266.997 138.828L233.662 119.6L225.72 124.094L228.019 128.065L233.662 129.58V131.827L266.997 151.055C270.864 153.302 274.626 154.555 278.127 154.869C283.09 150.48 282.568 144.994 280.478 139.873Z" fill="#E8A200"/>
<path d="M276.925 84.436L268.722 79.6812L260.78 84.1747L261.198 86.944L272.223 98.7002L280.896 111.084L294.481 103.246C289.935 95.1473 283.665 88.3025 276.925 84.436Z" fill="#FDD762"/>
<path d="M259.055 155.548L225.72 136.268V124.041L259.055 143.27C266.266 147.397 272.85 146.352 275.828 140.552L281.209 130.207C283.195 126.445 282.829 120.802 280.321 114.793C277.813 108.784 273.633 103.768 268.983 101.051L260.78 96.2967V84.0702L268.983 88.825C277.238 93.5797 284.815 102.723 289.256 113.33C293.697 123.885 294.272 134.178 290.823 140.866L285.442 151.211C280.687 160.407 270.341 162.079 259.055 155.548Z" fill="#F9BF30"/>
</svg>
